<svg width="32" height="32" viewBox="0 0 32 32" fill="none" xmlns="http://www.w3.org/2000/svg">
<path d="M16.0002 22.6663C19.682 22.6663 22.6668 19.6815 22.6668 15.9997C22.6668 12.3178 19.682 9.33301 16.0002 9.33301C12.3183 9.33301 9.3335 12.3178 9.3335 15.9997C9.3335 19.6815 12.3183 22.6663 16.0002 22.6663Z" stroke="#EDEDED" stroke-width="2" stroke-linecap="round" stroke-linejoin="round"/>
<path d="M1 22.6667V9.33333C1 4.73097 4.73097 1 9.33333 1H22.6667C27.269 1 31 4.73097 31 9.33333V22.6667C31 27.269 27.269 31 22.6667 31H9.33333C4.73097 31 1 27.269 1 22.6667Z" stroke="#EDEDED" stroke-width="2"/>
<path d="M25.1665 6.85055L25.1832 6.83203" stroke="#EDEDED" stroke-width="2" stroke-linecap="round" stroke-linejoin="round"/>
</svg>
