<svg width="52" height="28" viewBox="0 0 52 28" fill="none" xmlns="http://www.w3.org/2000/svg">
<g clip-path="url(#clip0_0_1962)">
<path d="M34.5436 20.1428H37.7941C38.2247 23.6667 40.5731 24.6474 43.5878 24.6474C46.9168 24.6474 48.2874 23.1982 48.2874 21.3184C48.2874 19.0457 46.7218 18.4608 43 17.678C39.0046 16.8545 35.4428 16.0339 35.4428 11.6078C35.4428 8.24102 38.0269 6.04691 42.7265 6.04691C47.7374 6.04691 50.2051 8.43599 50.6765 12.3906H47.426C47.1118 9.72801 45.6626 8.55238 42.6479 8.55238C39.6332 8.55238 38.5769 9.84441 38.5769 11.4507C38.5769 13.6448 40.5353 14.0755 44.0185 14.7797C48.0895 15.6032 51.4971 16.5024 51.4971 21.1613C51.4971 25.2323 48.1681 27.31 43.5092 27.31C37.9483 27.31 34.855 24.6881 34.5436 20.1457V20.1428Z" fill="#0A0E0B"/>
<path d="M6.24136 7.48733C7.30931 6.8646 8.61007 6.55032 10.1465 6.55032V9.93461H9.28227C5.60989 9.93461 3.77371 11.9279 3.77371 15.9088V26.6349H0.5V6.91116H3.77662V10.115C4.35279 8.98887 5.1734 8.11297 6.24136 7.48733Z" fill="#0A0E0B"/>
<path d="M12.588 11.3925C13.4028 9.86768 14.526 8.68624 15.9548 7.84817C17.3836 7.00719 18.9841 6.58815 20.7592 6.58815C22.2956 6.58815 23.7244 6.94317 25.0426 7.65029C26.3608 8.35741 27.3706 9.2886 28.0661 10.4409V0H31.3776V26.6378H28.0661V22.9305C27.4172 24.1061 26.4569 25.0722 25.1852 25.8288C23.9136 26.5854 22.4266 26.9637 20.7213 26.9637C19.0161 26.9637 17.3778 26.533 15.9519 25.6688C14.5231 24.8045 13.4028 23.594 12.5851 22.0342C11.7703 20.4745 11.36 18.6994 11.36 16.7061C11.36 14.7128 11.7674 12.9202 12.5851 11.3954L12.588 11.3925ZM27.1669 12.8504C26.5674 11.7475 25.7556 10.9007 24.7371 10.3129C23.7186 9.72509 22.5954 9.43119 21.3703 9.43119C20.1452 9.43119 19.0306 9.71928 18.0238 10.2954C17.017 10.8716 16.2109 11.7126 15.6114 12.8155C15.012 13.9184 14.7123 15.2162 14.7123 16.7032C14.7123 18.1902 15.012 19.5288 15.6114 20.6433C16.2109 21.7607 17.014 22.6104 18.0238 23.1982C19.0306 23.786 20.1481 24.0799 21.3703 24.0799C22.5924 24.0799 23.7157 23.786 24.7371 23.1982C25.7556 22.6104 26.5674 21.7578 27.1669 20.6433C27.7664 19.5288 28.0661 18.2251 28.0661 16.7381C28.0661 15.2511 27.7664 13.9562 27.1669 12.8504Z" fill="#0A0E0B"/>
</g>
<defs>
<clipPath id="clip0_0_1962">
<rect width="51" height="27.31" fill="white" transform="translate(0.5)"/>
</clipPath>
</defs>
</svg>
