<svg width="51" height="28" viewBox="0 0 51 28" fill="none" xmlns="http://www.w3.org/2000/svg">
<g clip-path="url(#clip0_0_2194)">
<path d="M34.0437 20.1428H37.2941C37.7248 23.6667 40.0731 24.6474 43.0879 24.6474C46.4169 24.6474 47.7875 23.1982 47.7875 21.3184C47.7875 19.0457 46.2219 18.4608 42.5001 17.678C38.5047 16.8545 34.9429 16.0339 34.9429 11.6078C34.9429 8.24102 37.5269 6.04691 42.2265 6.04691C47.2375 6.04691 49.7051 8.43599 50.1765 12.3906H46.9261C46.6118 9.72801 45.1627 8.55238 42.1479 8.55238C39.1332 8.55238 38.0769 9.84441 38.0769 11.4507C38.0769 13.6448 40.0353 14.0755 43.5185 14.7797C47.5896 15.6032 50.9971 16.5024 50.9971 21.1613C50.9971 25.2323 47.6681 27.31 43.0093 27.31C37.4484 27.31 34.3551 24.6881 34.0437 20.1457V20.1428Z" fill="#EDEDED"/>
<path d="M5.74136 7.48733C6.80931 6.8646 8.11007 6.55032 9.64653 6.55032V9.93461H8.78227C5.10989 9.93461 3.27371 11.9279 3.27371 15.9088V26.6349H0V6.91116H3.27662V10.115C3.85279 8.98887 4.6734 8.11297 5.74136 7.48733Z" fill="#EDEDED"/>
<path d="M12.088 11.3925C12.9028 9.86768 14.026 8.68624 15.4548 7.84817C16.8836 7.00719 18.4841 6.58815 20.2592 6.58815C21.7956 6.58815 23.2244 6.94317 24.5426 7.65029C25.8608 8.35741 26.8706 9.2886 27.5661 10.4409V0H30.8776V26.6378H27.5661V22.9305C26.9172 24.1061 25.9569 25.0722 24.6852 25.8288C23.4136 26.5854 21.9266 26.9637 20.2213 26.9637C18.5161 26.9637 16.8778 26.533 15.4519 25.6688C14.0231 24.8045 12.9028 23.594 12.0851 22.0342C11.2703 20.4745 10.86 18.6994 10.86 16.7061C10.86 14.7128 11.2674 12.9202 12.0851 11.3954L12.088 11.3925ZM26.6669 12.8504C26.0674 11.7475 25.2556 10.9007 24.2371 10.3129C23.2186 9.72509 22.0954 9.43119 20.8703 9.43119C19.6452 9.43119 18.5306 9.71928 17.5238 10.2954C16.517 10.8716 15.7109 11.7126 15.1114 12.8155C14.512 13.9184 14.2123 15.2162 14.2123 16.7032C14.2123 18.1902 14.512 19.5288 15.1114 20.6433C15.7109 21.7607 16.514 22.6104 17.5238 23.1982C18.5306 23.786 19.6481 24.0799 20.8703 24.0799C22.0924 24.0799 23.2157 23.786 24.2371 23.1982C25.2556 22.6104 26.0674 21.7578 26.6669 20.6433C27.2664 19.5288 27.5661 18.2251 27.5661 16.7381C27.5661 15.2511 27.2664 13.9562 26.6669 12.8504Z" fill="#EDEDED"/>
</g>
<defs>
<clipPath id="clip0_0_2194">
<rect width="51" height="27.31" fill="white"/>
</clipPath>
</defs>
</svg>
