<svg width="139" height="28" viewBox="0 0 139 28" fill="none" xmlns="http://www.w3.org/2000/svg">
<path d="M78 20.4609H81.113C81.5243 23.829 83.777 24.7623 86.6636 24.7623C89.852 24.7623 91.1651 23.3774 91.1651 21.5823C91.1651 19.4109 89.6633 18.8502 86.1013 18.1051C82.2752 17.3185 78.8603 16.532 78.8603 12.3059C78.8603 9.08829 81.3356 6.99216 85.8372 6.99216C90.6369 6.99216 93.0027 9.27269 93.4518 13.051H90.3388C90.0369 10.507 88.6521 9.38559 85.7617 9.38559C82.8714 9.38559 81.8601 10.6199 81.8601 12.1554C81.8601 14.2515 83.7355 14.6617 87.0748 15.3353C90.9765 16.1218 94.2404 16.9799 94.2404 21.4318C94.2404 25.323 91.0519 27.3062 86.5881 27.3062C81.2601 27.3062 78.2981 24.7999 78 20.4609Z" fill="#F94940"/>
<path d="M48.5732 8.208C49.6109 7.60588 50.8749 7.30106 52.3654 7.30106V10.5751H51.5277C47.9619 10.5751 46.1809 12.5019 46.1809 16.3592V26.7421H43V7.65104H46.1809V10.752C46.7394 9.66062 47.5393 8.81389 48.5732 8.208Z" fill="#F94940"/>
<path d="M56.0328 11.9901C56.8252 10.5149 57.912 9.37085 59.3005 8.55799C60.6853 7.74512 62.24 7.33869 63.9644 7.33869C65.4548 7.33869 66.8396 7.68115 68.1226 8.36606C69.4017 9.05098 70.3828 9.9504 71.0582 11.0681V0.959961H74.2731V26.7458H71.0582V23.1557C70.4281 24.296 69.4961 25.2292 68.2622 25.9631C67.0283 26.6932 65.5831 27.062 63.9304 27.062C62.2777 27.062 60.6853 26.6442 59.3005 25.8088C57.9157 24.9733 56.8252 23.7992 56.0328 22.2901C55.2404 20.7811 54.8442 19.0613 54.8442 17.1345C54.8442 15.2077 55.2404 13.469 56.0328 11.9938V11.9901ZM70.1828 13.4013C69.6017 12.3325 68.8131 11.5159 67.8245 10.9439C66.8359 10.3756 65.7454 10.0896 64.5568 10.0896C63.3682 10.0896 62.2852 10.3681 61.3079 10.9251C60.3307 11.482 59.5496 12.2949 58.9685 13.3637C58.3874 14.4324 58.0968 15.6856 58.0968 17.1269C58.0968 18.5683 58.3874 19.8628 58.9685 20.9429C59.5496 22.0229 60.3307 22.8471 61.3079 23.4191C62.2852 23.9874 63.3682 24.2734 64.5568 24.2734C65.7454 24.2734 66.8359 23.9874 67.8245 23.4191C68.8131 22.8509 69.6017 22.0267 70.1828 20.9429C70.7639 19.8628 71.0544 18.6021 71.0544 17.1608C71.0544 15.7195 70.7639 14.4663 70.1828 13.3975V13.4013Z" fill="#F94940"/>
</svg>
