<svg width="32" height="32" viewBox="0 0 32 32" fill="none" xmlns="http://www.w3.org/2000/svg">
<rect x="1" y="1" width="30" height="30" rx="10" stroke="#EDEDED" stroke-width="2"/>
<path d="M23.5 10.0069C23.5 10.0069 22.1242 10.8197 21.3591 11.05C20.9484 10.5779 20.4027 10.2432 19.7957 10.0913C19.1887 9.93947 18.5497 9.97767 17.9651 10.2008C17.3805 10.4239 16.8785 10.8212 16.527 11.3389C16.1756 11.8567 15.9916 12.4698 16 13.0955V13.7773C14.8018 13.8084 13.6145 13.5426 12.5439 13.0037C11.4732 12.4649 10.5525 11.6696 9.86364 10.6887C9.86364 10.6887 7.13636 16.8251 13.2727 19.5523C11.8685 20.5055 10.1958 20.9834 8.5 20.916C14.6364 24.3251 22.1364 20.916 22.1364 13.075C22.1358 12.8851 22.1175 12.6957 22.0818 12.5091C22.7777 11.8229 23.5 10.0069 23.5 10.0069Z" stroke="#EDEDED" stroke-width="2" stroke-linecap="round" stroke-linejoin="round"/>
</svg>
