<svg width="58" height="50" viewBox="0 0 58 50" fill="none" xmlns="http://www.w3.org/2000/svg">
<path d="M10.2902 14.3274C12.2061 13.203 14.54 12.6337 17.2919 12.6337V18.7478H15.7453C9.16152 18.7478 5.87313 22.346 5.87313 29.5494V48.9388H0V13.2873H5.87313V19.0781C6.90423 17.0401 8.38122 15.4589 10.2902 14.3274Z" fill="#ECECEC"/>
<path d="M24.0637 21.3903C25.5268 18.6354 27.5333 16.499 30.0971 14.981C32.654 13.463 35.5243 12.704 38.7082 12.704C41.4602 12.704 44.017 13.3435 46.3858 14.6226C48.7476 15.9016 50.559 17.5812 51.8061 19.6685V0.792068H57.7419V48.9458H51.8061V42.2414C50.6426 44.3708 48.9217 46.1137 46.6436 47.4841C44.3654 48.8475 41.697 49.5362 38.6455 49.5362C35.594 49.5362 32.654 48.7561 30.0971 47.196C27.5402 45.6358 25.5268 43.4432 24.0637 40.6251C22.6007 37.807 21.8691 34.5953 21.8691 30.9971C21.8691 27.3989 22.6007 24.1521 24.0637 21.3973V21.3903ZM50.1897 24.0256C49.1168 22.0298 47.6607 20.5048 45.8354 19.4366C44.0101 18.3754 41.9966 17.8413 39.802 17.8413C37.6074 17.8413 35.6079 18.3613 33.8035 19.4014C31.9991 20.4415 30.5569 21.9595 29.484 23.9554C28.4111 25.9512 27.8746 28.2914 27.8746 30.9831C27.8746 33.6747 28.4111 36.0922 29.484 38.1091C30.5569 40.1261 31.9991 41.6652 33.8035 42.7334C35.6079 43.7946 37.6074 44.3287 39.802 44.3287C41.9966 44.3287 44.0101 43.7946 45.8354 42.7334C47.6607 41.6722 49.1168 40.1331 50.1897 38.1091C51.2626 36.0922 51.7991 33.7379 51.7991 31.0463C51.7991 28.3547 51.2626 26.0145 50.1897 24.0186V24.0256Z" fill="#ECECEC"/>
</svg>
