<svg width="1160" height="227" viewBox="0 0 1160 227" fill="none" xmlns="http://www.w3.org/2000/svg">
<path d="M366.588 170.07H392.463C395.882 198.066 414.606 205.823 438.6 205.823C465.102 205.823 476.017 194.312 476.017 179.392C476.017 161.343 463.534 156.682 433.926 150.489C402.124 143.951 373.739 137.414 373.739 102.286C373.739 75.5417 394.314 58.1186 431.731 58.1186C471.626 58.1186 491.291 77.0744 495.023 108.48H469.148C466.639 87.3343 455.128 78.0128 431.104 78.0128C407.079 78.0128 398.674 88.2727 398.674 101.035C398.674 118.458 414.261 121.868 442.018 127.467C474.448 134.004 501.578 141.136 501.578 178.141C501.578 210.484 475.076 226.969 437.972 226.969C393.687 226.969 369.066 206.136 366.588 170.07Z" fill="#EDEDED" fill-opacity="0.1"/>
<path d="M512.494 61.5592H535.891V10.8854H561.139V61.5592H592.315V82.079H561.139V186.555C561.139 197.753 567.067 201.475 577.354 201.475C582.341 201.475 587.955 200.224 590.747 199.286H591.688V221.057C585.76 222.308 578.891 223.246 571.427 223.246C550.852 223.246 535.891 214.863 535.891 192.154V82.079H512.494V61.5592Z" fill="#EDEDED" fill-opacity="0.1"/>
<path d="M721.034 222.339V200.255H720.406C708.865 215.802 695.159 226.062 671.761 226.062C638.704 226.062 617.502 206.167 617.502 172.885V61.5593H642.75V172.26C642.75 193.092 656.142 205.229 678.912 205.229C704.474 205.229 721.002 185.96 721.002 160.467V61.5906H746.25V222.339H721.002H721.034Z" fill="#EDEDED" fill-opacity="0.1"/>
<path d="M771.529 142.418C771.529 88.9294 802.391 57.837 842.317 57.837C865.087 57.837 882.526 69.0353 892.813 84.2687H893.44V0H918.688V222.339H893.44V202.758H892.813C880.644 218.304 865.683 227 842.945 227C798.973 227 771.561 194.031 771.561 142.418H771.529ZM895.008 142.731C895.008 105.414 876.912 79.2952 843.572 79.2952C813.024 79.2952 797.436 106.665 797.436 142.731C797.436 178.797 813.024 205.855 843.885 205.855C879.734 205.855 895.008 179.11 895.008 142.731Z" fill="#EDEDED" fill-opacity="0.1"/>
<path d="M952.968 0H978.216V31.0925H952.968V0ZM952.968 61.5593H978.216V222.308H952.968V61.5593Z" fill="#EDEDED" fill-opacity="0.1"/>
<path d="M1003.46 142.106C1003.46 95.4671 1033.39 57.5243 1081.4 57.5243C1129.42 57.5243 1159.03 95.4671 1159.03 142.106C1159.03 188.744 1129.74 226.687 1081.4 226.687C1033.07 226.687 1003.46 188.744 1003.46 142.106ZM1133.19 142.106C1133.19 106.665 1115.72 78.3569 1081.44 78.3569C1047.15 78.3569 1029.37 106.665 1029.37 142.106C1029.37 177.546 1047.15 205.542 1081.44 205.542C1115.72 205.542 1133.19 177.546 1133.19 142.106Z" fill="#EDEDED" fill-opacity="0.1"/>
<path d="M47.1856 68.2247C55.8106 63.2199 66.3175 60.6862 78.7062 60.6862V87.8999H71.7434C42.1047 87.8999 27.301 103.915 27.301 135.978V222.279H0.861328V63.5953H27.301V89.3701C31.9428 80.2989 38.5919 73.2608 47.1856 68.2247Z" fill="#EDEDED" fill-opacity="0.1"/>
<path d="M109.192 99.6613C115.778 87.3995 124.811 77.8903 136.353 71.1338C147.863 64.3773 160.785 60.999 175.118 60.999C187.507 60.999 199.017 63.8455 209.681 69.5385C220.313 75.2315 228.468 82.7074 234.082 91.9976V7.97917H260.804V222.311H234.082V192.469C228.844 201.947 221.098 209.705 210.842 215.804C200.586 221.873 188.573 224.938 174.836 224.938C161.099 224.938 147.863 221.466 136.353 214.522C124.842 207.578 115.778 197.818 109.192 185.275C102.605 172.732 99.312 158.437 99.312 142.421C99.312 126.406 102.605 111.954 109.192 99.6925V99.6613ZM226.806 111.391C221.976 102.508 215.421 95.72 207.203 90.9654C198.986 86.2421 189.922 83.8648 180.042 83.8648C170.163 83.8648 161.161 86.1795 153.038 90.809C144.915 95.4385 138.423 102.195 133.593 111.079C128.763 119.962 126.348 130.378 126.348 142.359C126.348 154.339 128.763 165.099 133.593 174.077C138.423 183.054 144.915 189.904 153.038 194.659C161.161 199.382 170.163 201.76 180.042 201.76C189.922 201.76 198.986 199.382 207.203 194.659C215.421 189.936 221.976 183.085 226.806 174.077C231.636 165.099 234.051 154.62 234.051 142.64C234.051 130.66 231.636 120.244 226.806 111.36V111.391Z" fill="#EDEDED" fill-opacity="0.1"/>
</svg>
