<svg width="1159" height="227" viewBox="0 0 1159 227" fill="none" xmlns="http://www.w3.org/2000/svg">
<path d="M365.727 170.07H391.602C395.021 198.066 413.745 205.823 437.738 205.823C464.24 205.823 475.155 194.312 475.155 179.392C475.155 161.343 462.672 156.682 433.065 150.489C401.262 143.951 372.878 137.414 372.878 102.286C372.878 75.5417 393.452 58.1186 430.869 58.1186C470.764 58.1186 490.429 77.0744 494.161 108.48H468.286C465.777 87.3343 454.267 78.0128 430.242 78.0128C406.217 78.0128 397.812 88.2727 397.812 101.035C397.812 118.458 413.4 121.868 441.157 127.467C473.587 134.004 500.716 141.136 500.716 178.141C500.716 210.484 474.214 226.969 437.111 226.969C392.825 226.969 368.205 206.136 365.727 170.07Z" fill="#EDEDED" fill-opacity="0.1"/>
<path d="M511.633 61.5592H535.03V10.8854H560.278V61.5592H591.454V82.079H560.278V186.555C560.278 197.753 566.206 201.475 576.493 201.475C581.48 201.475 587.094 200.224 589.885 199.286H590.826V221.057C584.899 222.308 578.03 223.246 570.565 223.246C549.991 223.246 535.03 214.863 535.03 192.154V82.079H511.633V61.5592Z" fill="#EDEDED" fill-opacity="0.1"/>
<path d="M720.172 222.339V200.255H719.545C708.003 215.802 694.297 226.062 670.9 226.062C637.843 226.062 616.641 206.167 616.641 172.885V61.5593H641.888V172.26C641.888 193.092 655.281 205.229 678.051 205.229C703.612 205.229 720.141 185.96 720.141 160.467V61.5906H745.389V222.339H720.141H720.172Z" fill="#EDEDED" fill-opacity="0.1"/>
<path d="M770.668 142.418C770.668 88.9294 801.53 57.837 841.456 57.837C864.226 57.837 881.664 69.0353 891.951 84.2687H892.579V0H917.827V222.339H892.579V202.758H891.951C879.782 218.304 864.822 227 842.083 227C798.111 227 770.699 194.031 770.699 142.418H770.668ZM894.147 142.731C894.147 105.414 876.05 79.2952 842.71 79.2952C812.162 79.2952 796.574 106.665 796.574 142.731C796.574 178.797 812.162 205.855 843.024 205.855C878.873 205.855 894.147 179.11 894.147 142.731Z" fill="#EDEDED" fill-opacity="0.1"/>
<path d="M952.107 0H977.355V31.0925H952.107V0ZM952.107 61.5593H977.355V222.308H952.107V61.5593Z" fill="#EDEDED" fill-opacity="0.1"/>
<path d="M1002.6 142.106C1002.6 95.4671 1032.52 57.5243 1080.54 57.5243C1128.56 57.5243 1158.17 95.4671 1158.17 142.106C1158.17 188.744 1128.87 226.687 1080.54 226.687C1032.21 226.687 1002.6 188.744 1002.6 142.106ZM1132.32 142.106C1132.32 106.665 1114.85 78.3569 1080.57 78.3569C1046.29 78.3569 1028.51 106.665 1028.51 142.106C1028.51 177.546 1046.29 205.542 1080.57 205.542C1114.85 205.542 1132.32 177.546 1132.32 142.106Z" fill="#EDEDED" fill-opacity="0.1"/>
<path d="M46.3243 68.2247C54.9493 63.2199 65.4562 60.6862 77.8449 60.6862V87.8999H70.8821C41.2433 87.8999 26.4397 103.915 26.4397 135.978V222.279H0V63.5953H26.4397V89.3701C31.0815 80.2989 37.7306 73.2608 46.3243 68.2247Z" fill="#EDEDED" fill-opacity="0.1"/>
<path d="M108.331 99.6613C114.917 87.3995 123.95 77.8903 135.492 71.1338C147.002 64.3773 159.924 60.999 174.257 60.999C186.646 60.999 198.156 63.8455 208.82 69.5385C219.452 75.2315 227.607 82.7074 233.221 91.9976V7.97917H259.943V222.311H233.221V192.469C227.983 201.947 220.236 209.705 209.98 215.804C199.725 221.873 187.712 224.938 173.975 224.938C160.238 224.938 147.002 221.466 135.492 214.522C123.981 207.578 114.917 197.818 108.331 185.275C101.744 172.732 98.4509 158.437 98.4509 142.421C98.4509 126.406 101.744 111.954 108.331 99.6925V99.6613ZM225.945 111.391C221.115 102.508 214.56 95.72 206.342 90.9654C198.125 86.2421 189.061 83.8648 179.181 83.8648C169.302 83.8648 160.3 86.1795 152.177 90.809C144.054 95.4385 137.562 102.195 132.732 111.079C127.902 119.962 125.486 130.378 125.486 142.359C125.486 154.339 127.902 165.099 132.732 174.077C137.562 183.054 144.054 189.904 152.177 194.659C160.3 199.382 169.302 201.76 179.181 201.76C189.061 201.76 198.125 199.382 206.342 194.659C214.56 189.936 221.115 183.085 225.945 174.077C230.775 165.099 233.19 154.62 233.19 142.64C233.19 130.66 230.775 120.244 225.945 111.36V111.391Z" fill="#EDEDED" fill-opacity="0.1"/>
</svg>
