<svg width="177" height="51" viewBox="0 0 177 51" fill="none" xmlns="http://www.w3.org/2000/svg">
<path d="M0.966309 38.2096H6.71403C7.47342 44.4994 11.6327 46.2423 16.9624 46.2423C22.8495 46.2423 25.2739 43.6561 25.2739 40.3038C25.2739 36.2489 22.5011 35.2017 15.9243 33.8103C8.85984 32.3415 2.55477 30.8727 2.55477 22.9806C2.55477 16.9719 7.12508 13.0575 15.4366 13.0575C24.2986 13.0575 28.6668 17.3162 29.4959 24.3721H23.7482C23.1908 19.6213 20.634 17.5271 15.2973 17.5271C9.96063 17.5271 8.09348 19.8322 8.09348 22.6995C8.09348 26.6139 11.556 27.3799 17.7218 28.6379C24.9256 30.1067 30.952 31.709 30.952 40.0227C30.952 47.2894 25.0649 50.993 16.823 50.993C6.98574 50.993 1.5167 46.3125 0.966309 38.2096Z" fill="#ECECEC"/>
<path d="M33.3765 13.8305H38.5738V2.44563H44.1822V13.8305H51.1073V18.4407H44.1822V41.9132C44.1822 44.4291 45.4989 45.2654 47.7841 45.2654C48.8918 45.2654 50.1389 44.9843 50.759 44.7735H50.968V49.6647C49.6512 49.9458 48.1255 50.1567 46.4673 50.1567C41.897 50.1567 38.5738 48.2732 38.5738 43.1711V18.4407H33.3765V13.8305Z" fill="#ECECEC"/>
<path d="M79.6995 49.9529V44.9913H79.5602C76.9963 48.4841 73.9518 50.7892 68.7545 50.7892C61.4113 50.7892 56.7017 46.3196 56.7017 38.8421V13.8305H62.31V38.7015C62.31 43.382 65.2849 46.1087 70.3429 46.1087C76.021 46.1087 79.6925 41.7797 79.6925 36.0521V13.8375H85.3009V49.9529H79.6925H79.6995Z" fill="#ECECEC"/>
<path d="M90.9165 31.9971C90.9165 19.9797 97.772 12.9942 106.641 12.9942C111.699 12.9942 115.572 15.5101 117.858 18.9326H117.997V0H123.605V49.9529H117.997V45.5535H117.858C115.154 49.0463 111.831 51 106.78 51C97.0126 51 90.9235 43.5928 90.9235 31.9971H90.9165ZM118.345 32.0674C118.345 23.6833 114.325 17.8152 106.92 17.8152C100.134 17.8152 96.6712 23.9644 96.6712 32.0674C96.6712 40.1703 100.134 46.2493 106.989 46.2493C114.952 46.2493 118.345 40.2406 118.345 32.0674Z" fill="#ECECEC"/>
<path d="M131.22 0H136.829V6.98553H131.22V0ZM131.22 13.8305H136.829V49.9458H131.22V13.8305Z" fill="#ECECEC"/>
<path d="M142.437 31.9268C142.437 21.4485 149.083 12.9239 159.75 12.9239C170.416 12.9239 176.993 21.4485 176.993 31.9268C176.993 42.4051 170.486 50.9297 159.75 50.9297C149.014 50.9297 142.437 42.4051 142.437 31.9268ZM171.252 31.9268C171.252 23.9644 167.372 17.6044 159.757 17.6044C152.142 17.6044 148.192 23.9644 148.192 31.9268C148.192 39.8892 152.142 46.179 159.757 46.179C167.372 46.179 171.252 39.8892 171.252 31.9268Z" fill="#ECECEC"/>
</svg>
