<svg width="1159" height="227" viewBox="0 0 1159 227" fill="none" xmlns="http://www.w3.org/2000/svg">
<path d="M366.159 170.07H392.034C395.452 198.066 414.177 205.823 438.17 205.823C464.672 205.823 475.587 194.312 475.587 179.392C475.587 161.343 463.104 156.682 433.497 150.489C401.694 143.951 373.31 137.414 373.31 102.286C373.31 75.5417 393.884 58.1186 431.301 58.1186C471.196 58.1186 490.861 77.0744 494.593 108.48H468.718C466.209 87.3343 454.699 78.0128 430.674 78.0128C406.649 78.0128 398.244 88.2727 398.244 101.035C398.244 118.458 413.832 121.868 441.589 127.467C474.019 134.004 501.148 141.136 501.148 178.141C501.148 210.484 474.646 226.969 437.543 226.969C393.257 226.969 368.636 206.136 366.159 170.07Z" fill="#EDEDED" fill-opacity="0.1"/>
<path d="M512.064 61.5592H535.462V10.8854H560.71V61.5592H591.885V82.079H560.71V186.555C560.71 197.753 566.637 201.475 576.925 201.475C581.912 201.475 587.526 200.224 590.317 199.286H591.258V221.057C585.33 222.308 578.462 223.246 570.997 223.246C550.422 223.246 535.462 214.863 535.462 192.154V82.079H512.064V61.5592Z" fill="#EDEDED" fill-opacity="0.1"/>
<path d="M720.604 222.339V200.255H719.977C708.435 215.802 694.729 226.062 671.332 226.062C638.274 226.062 617.072 206.167 617.072 172.885V61.5593H642.32V172.26C642.32 193.092 655.712 205.229 678.483 205.229C704.044 205.229 720.573 185.96 720.573 160.467V61.5906H745.821V222.339H720.573H720.604Z" fill="#EDEDED" fill-opacity="0.1"/>
<path d="M771.1 142.418C771.1 88.9294 801.962 57.837 841.888 57.837C864.658 57.837 882.096 69.0353 892.383 84.2687H893.011V0H918.258V222.339H893.011V202.758H892.383C880.214 218.304 865.254 227 842.515 227C798.543 227 771.131 194.031 771.131 142.418H771.1ZM894.579 142.731C894.579 105.414 876.482 79.2952 843.142 79.2952C812.594 79.2952 797.006 106.665 797.006 142.731C797.006 178.797 812.594 205.855 843.456 205.855C879.305 205.855 894.579 179.11 894.579 142.731Z" fill="#EDEDED" fill-opacity="0.1"/>
<path d="M952.538 0H977.786V31.0925H952.538V0ZM952.538 61.5593H977.786V222.308H952.538V61.5593Z" fill="#EDEDED" fill-opacity="0.1"/>
<path d="M1003.04 142.106C1003.04 95.4671 1032.96 57.5243 1080.97 57.5243C1128.99 57.5243 1158.6 95.4671 1158.6 142.106C1158.6 188.744 1129.31 226.687 1080.97 226.687C1032.64 226.687 1003.04 188.744 1003.04 142.106ZM1132.76 142.106C1132.76 106.665 1115.29 78.3569 1081.01 78.3569C1046.72 78.3569 1028.94 106.665 1028.94 142.106C1028.94 177.546 1046.72 205.542 1081.01 205.542C1115.29 205.542 1132.76 177.546 1132.76 142.106Z" fill="#EDEDED" fill-opacity="0.1"/>
<path d="M46.7559 68.2247C55.381 63.2199 65.8878 60.6862 78.2765 60.6862V87.8999H71.3137C41.675 87.8999 26.8713 103.915 26.8713 135.978V222.279H0.431641V63.5953H26.8713V89.3701C31.5131 80.2989 38.1622 73.2608 46.7559 68.2247Z" fill="#EDEDED" fill-opacity="0.1"/>
<path d="M108.762 99.6613C115.348 87.3995 124.381 77.8903 135.923 71.1338C147.433 64.3773 160.355 60.999 174.689 60.999C187.077 60.999 198.588 63.8455 209.251 69.5385C219.884 75.2315 228.038 82.7074 233.652 91.9976V7.97917H260.374V222.311H233.652V192.469C228.415 201.947 220.668 209.705 210.412 215.804C200.156 221.873 188.144 224.938 174.406 224.938C160.669 224.938 147.433 221.466 135.923 214.522C124.412 207.578 115.348 197.818 108.762 185.275C102.176 172.732 98.8823 158.437 98.8823 142.421C98.8823 126.406 102.176 111.954 108.762 99.6925V99.6613ZM226.376 111.391C221.546 102.508 214.991 95.72 206.774 90.9654C198.556 86.2421 189.492 83.8648 179.613 83.8648C169.733 83.8648 160.732 86.1795 152.608 90.809C144.485 95.4385 137.993 102.195 133.163 111.079C128.333 119.962 125.918 130.378 125.918 142.359C125.918 154.339 128.333 165.099 133.163 174.077C137.993 183.054 144.485 189.904 152.608 194.659C160.732 199.382 169.733 201.76 179.613 201.76C189.492 201.76 198.556 199.382 206.774 194.659C214.991 189.936 221.546 183.085 226.376 174.077C231.206 165.099 233.621 154.62 233.621 142.64C233.621 130.66 231.206 120.244 226.376 111.36V111.391Z" fill="#EDEDED" fill-opacity="0.1"/>
</svg>
